# xmcd CD database file
#
# Track frame offsets:
#	150
#	27700
#	70992
#	94320
#	110020
#	133110
#	156785
#	173627
#	193037
#	212922
#
# Disc length: 3172 seconds
#
# Revision: 7
# Processed by: cddbd v1.5.2PL0 Copyright (c) Steve Scherf et al.
# Submitted via: CDex 1.70beta3
#
DISCID=960c620a
DTITLE=AIR - Best Not Best disk1
DYEAR=2003
DGENRE=JPop
TTITLE0=Somehow
TTITLE1=Hair Do(strings ver.)
TTITLE2=Are You Sleeping Brother John? (celt ver.)
TTITLE3=Yawn
TTITLE4=Liv
TTITLE5=kokode Tashikani
TTITLE6=Natsu no iro wo sagasini
TTITLE7=Honey Cow
TTITLE8=Heavenly
TTITLE9=Hello
EXTD=YEAR: 2003
EXTT0=
EXTT1=
EXTT2=
EXTT3=
EXTT4=
EXTT5=
EXTT6=
EXTT7=
EXTT8=
EXTT9=
PLAYORDER=
